# xmcd
#
# Track frame offsets:
#  150
#  14296
#  24509
#  42694
#  52648
#  65340
#  83071
#  101570
#  119005
#  139173
#  158739
#  178792
#  197134
#  226810
#  251985
#  279688
#  293416
#  318684
#  345873
#
# Disc length: 4877 seconds
#
# Revision: 0
# Processed by: cddbd v1.5.1PL0 Copyright (c) Steve Scherf et al.
# Submitted via: Collectorz.com Music Collector 6.9
#
DISCID=0d130b13
DTITLE=Various Artist - Honky Tonk 15
DYEAR=1900
DGENRE=
TTITLE0=Greg Brown - Brown Bear
TTITLE1=Greg Brown - The Way the Get Themselves Up
TTITLE2=Greg Brown - Night
TTITLE3=Greg Brown - On Anothers Sorrow
TTITLE4=Greg Brown - 10 Ships
TTITLE5=Greg Brown - China
TTITLE6=Greg Brown - Daughters
TTITLE7=Greg Brown - Hacklesbarney Tune
TTITLE8=Greg Brown - Not High
TTITLE9=Greg Brown - Lately
TTITLE10=Greg Brown - The Monkey
TTITLE11=Greg Brown - Worrisome Years
TTITLE12=Greg Brown - Never So Far
TTITLE13=Greg Brown - Ballingall Hotel
TTITLE14=Greg Brown - Fooled Me Once
TTITLE15=Marshall Chapman - You're the One For Me
TTITLE16=Marshall Chapman - I Walk the Line
TTITLE17=Marshall Chapman - Turn the Page
TTITLE18=Marshall Chapman - Why Can't I Be Like Other Girls
EXTD=
EXTT0=
EXTT1=
EXTT2=
EXTT3=
EXTT4=
EXTT5=
EXTT6=
EXTT7=
EXTT8=
EXTT9=
EXTT10=
EXTT11=
EXTT12=
EXTT13=
EXTT14=
EXTT15=
EXTT16=
EXTT17=
EXTT18=
PLAYORDER=
